<svg xmlns="http://www.w3.org/2000/svg" viewBox="0 0 100 100">
  <defs>
    <linearGradient id="bg" x1="0%" y1="0%" x2="100%" y2="100%">
      <stop offset="0%" style="stop-color:#1B4332"/>
      <stop offset="100%" style="stop-color:#2d3f33"/>
    </linearGradient>
    <linearGradient id="gold" x1="0%" y1="0%" x2="100%" y2="100%">
      <stop offset="0%" style="stop-color:#C9A227"/>
      <stop offset="100%" style="stop-color:#E5C565"/>
    </linearGradient>
  </defs>
  <!-- Victorian shield shape -->
  <path d="M50 5 L90 20 L90 50 Q90 80 50 95 Q10 80 10 50 L10 20 Z" fill="url(#bg)" stroke="url(#gold)" stroke-width="2"/>
  <!-- Elegant horse head silhouette -->
  <path d="M35 65 Q30 55 35 45 Q40 35 50 30 Q55 28 60 30 L65 28 Q68 30 65 35 L62 35 Q65 40 65 50 Q65 60 55 65 Q50 68 45 65 L40 70 L35 65 Z" fill="url(#gold)"/>
  <!-- Crown accent -->
  <path d="M40 22 L43 28 L50 25 L57 28 L60 22 L55 26 L50 20 L45 26 Z" fill="url(#gold)" opacity="0.8"/>
</svg>
